<svg width="1000" height="1000" viewBox="0 0 1000 1000" fill="none" xmlns="http://www.w3.org/2000/svg">
<rect width="1000" height="1000" rx="500" fill="#2465FF"/>
<path d="M612.252 253.417C615.099 259.679 617.661 267.364 619.938 276.473C622.215 285.582 623.638 294.691 624.208 303.8C625.346 312.339 625.631 319.74 625.062 326.002C624.492 332.265 622.5 335.68 619.084 336.25C615.668 336.25 608.552 332.834 597.735 326.002C586.918 318.601 575.248 311.485 562.723 304.654C550.199 297.253 538.528 291.56 527.711 287.575C516.894 283.02 510.348 283.874 508.07 290.136C506.362 294.691 505.224 302.376 504.654 313.193C504.085 324.01 503.516 337.388 502.947 353.329C502.947 368.7 502.947 386.348 502.947 406.274C503.516 425.63 504.085 446.125 504.654 467.758C521.734 466.05 536.82 464.912 549.914 464.342C563.577 463.773 572.401 464.058 576.386 465.196C581.51 466.904 585.495 471.459 588.342 478.86C591.757 485.691 593.75 493.377 594.319 501.916C595.458 510.456 595.173 518.426 593.465 525.827C592.327 533.228 589.765 538.067 585.78 540.344C582.933 542.052 573.825 543.191 558.453 543.76C543.652 544.329 526.573 544.329 507.216 543.76C508.355 572.794 509.494 601.544 510.632 630.009C512.34 657.905 513.763 683.523 514.902 706.865C516.04 730.206 516.894 750.416 517.464 767.495C518.602 784.005 519.172 795.675 519.172 802.507C519.172 811.046 516.61 815.032 511.486 814.462C506.932 813.324 501.239 809.623 494.407 803.361C487.575 796.529 480.175 787.99 472.204 777.742C464.803 767.495 458.541 757.248 453.417 747C450.571 741.876 448.009 732.768 445.732 719.674C443.455 706.58 441.177 690.924 438.9 672.706C436.623 653.92 434.346 633.14 432.069 610.368C429.791 587.596 427.799 563.97 426.091 539.49C414.705 538.351 404.742 537.213 396.203 536.074C388.233 534.936 383.393 533.797 381.686 532.658C378.839 530.381 376.847 527.535 375.708 524.119C375.139 520.134 374.569 516.149 374 512.164C374 508.179 374 504.478 374 501.062C374.569 497.077 375.139 493.946 375.708 491.669C376.847 489.961 381.401 487.968 389.371 485.691C397.911 483.414 408.727 481.137 421.821 478.86C420.113 457.226 418.69 436.162 417.551 415.667C416.982 395.172 416.413 376.385 415.844 359.306C415.274 341.658 414.705 326.572 414.136 314.047C414.136 300.953 414.42 290.99 414.99 284.159C414.99 279.035 418.121 271.919 424.383 262.81C431.215 253.132 438.9 243.454 447.44 233.776C456.549 224.098 465.657 215.273 474.766 207.303C484.444 199.333 492.13 193.925 497.823 191.078C510.917 184.816 523.726 183.393 536.251 186.808C548.775 190.224 560.161 196.202 570.409 204.741C580.656 212.712 589.48 221.536 596.881 231.214C604.282 240.323 609.406 247.724 612.252 253.417Z" fill="white"/>
</svg>
